HIERARCHY
ROOT Hips
{
  OFFSET 5.84602e-005 68.8428 3.50346
  CHANNELS 6 Xposition Yposition Zposition Zrotation Xrotation Yrotation
  JOINT Spine
  {
    OFFSET 0 8.597 -4.6522
    CHANNELS 3 Zrotation Xrotation Yrotation
    JOINT Spine1
    {
      OFFSET 0 7.8454 0.4098
      CHANNELS 3 Zrotation Xrotation Yrotation
      JOINT Spine2
      {
        OFFSET 0 9.7078 -2.1609
        CHANNELS 3 Zrotation Xrotation Yrotation
        JOINT Neck
        {
          OFFSET 0 21.8761 -0.4549
          CHANNELS 3 Zrotation Xrotation Yrotation
          JOINT Head
          {
            OFFSET 0 12.3537 3.3602
            CHANNELS 3 Zrotation Xrotation Yrotation
            End Site
            {
              OFFSET 0.0001 18.9506 0.5657
            }
          }
        }
        JOINT LeftShoulder
        {
          OFFSET 2.2086 21.1115 7.2329
          CHANNELS 3 Zrotation Xrotation Yrotation
          JOINT LeftArm
          {
            OFFSET 13.1193 3.0282 -4.8998
            CHANNELS 3 Zrotation Xrotation Yrotation
            JOINT LeftForeArm
            {
              OFFSET 27.4081 -0.0973053 -0.2375
              CHANNELS 3 Zrotation Xrotation Yrotation
              JOINT LeftHand
              {
                OFFSET 22.8641 0.0662994 -0.1369
                CHANNELS 3 Zrotation Xrotation Yrotation
                JOINT LeftHandIndex1
                {
                  OFFSET 8.8614 0.775009 2.4612
                  CHANNELS 3 Zrotation Xrotation Yrotation
                  JOINT LeftHandIndex2
                  {
                    OFFSET 3.3146 -0.808304 0.5841
                    CHANNELS 3 Zrotation Xrotation Yrotation
                    JOINT LeftHandIndex3
                    {
                      OFFSET 2.2628 -0.552002 0.3989
                      CHANNELS 3 Zrotation Xrotation Yrotation
                      End Site
                      {
                        OFFSET 1.6102 -0.4807 0.2612
                      }
                    }
                  }
                }
                JOINT LeftHandMiddle1
                {
                  OFFSET 8.9937 0.895004 0.2143
                  CHANNELS 3 Zrotation Xrotation Yrotation
                  JOINT LeftHandMiddle2
                  {
                    OFFSET 4.0984 0.0113983 -0.0242
                    CHANNELS 3 Zrotation Xrotation Yrotation
                    JOINT LeftHandMiddle3
                    {
                      OFFSET 2.2716 0.00689697 -0.0138001
                      CHANNELS 3 Zrotation Xrotation Yrotation
                      End Site
                      {
                        OFFSET 2.0404 -0.1441 0.0027
                      }
                    }
                  }
                }
                JOINT LeftHandRing1
                {
                  OFFSET 8.5234 0.597198 -2.0164
                  CHANNELS 3 Zrotation Xrotation Yrotation
                  JOINT LeftHandRing2
                  {
                    OFFSET 3.7188 -0.188293 -0.2328
                    CHANNELS 3 Zrotation Xrotation Yrotation
                    JOINT LeftHandRing3
                    {
                      OFFSET 2.1191 -0.106598 -0.1332
                      CHANNELS 3 Zrotation Xrotation Yrotation
                      End Site
                      {
                        OFFSET 1.8737 -0.2304 -0.0886
                      }
                    }
                  }
                }
                JOINT LeftHandPinky1
                {
                  OFFSET 7.9094 -0.601089 -3.4825
                  CHANNELS 3 Zrotation Xrotation Yrotation
                  JOINT LeftHandPinky2
                  {
                    OFFSET 2.2874 -0.477005 -0.6314
                    CHANNELS 3 Zrotation Xrotation Yrotation
                    JOINT LeftHandPinky3
                    {
                      OFFSET 1.6774 -0.349396 -0.4633
                      CHANNELS 3 Zrotation Xrotation Yrotation
                      End Site
                      {
                        OFFSET 1.4888 -0.4091 -0.3416
                      }
                    }
                  }
                }
                JOINT LeftHandThumb1
                {
                  OFFSET 1.833 -1.3875 1.3896
                  CHANNELS 3 Zrotation Xrotation Yrotation
                  JOINT LeftHandThumb2
                  {
                    OFFSET 3.4129 -1.121 2.5732
                    CHANNELS 3 Zrotation Xrotation Yrotation
                    JOINT LeftHandThumb3
                    {
                      OFFSET 2.2474 -0.804199 1.6192
                      CHANNELS 3 Zrotation Xrotation Yrotation
                      End Site
                      {
                        OFFSET 1.6527 -0.5689 1.1317
                      }
                    }
                  }
                }
              }
            }
          }
        }
        JOINT RightShoulder
        {
          OFFSET -2.2086 21.1115 7.2329
          CHANNELS 3 Zrotation Xrotation Yrotation
          JOINT RightArm
          {
            OFFSET -13.1216 3.0287 -4.9007
            CHANNELS 3 Zrotation Xrotation Yrotation
            JOINT RightForeArm
            {
              OFFSET -27.4081 -0.0973053 -0.2375
              CHANNELS 3 Zrotation Xrotation Yrotation
              JOINT RightHand
              {
                OFFSET -22.8641 0.0664063 -0.1369
                CHANNELS 3 Zrotation Xrotation Yrotation
                JOINT RightHandIndex1
                {
                  OFFSET -8.8614 0.774994 2.4612
                  CHANNELS 3 Zrotation Xrotation Yrotation
                  JOINT RightHandIndex2
                  {
                    OFFSET -3.3146 -0.808304 0.5841
                    CHANNELS 3 Zrotation Xrotation Yrotation
                    JOINT RightHandIndex3
                    {
                      OFFSET -2.2628 -0.552002 0.3989
                      CHANNELS 3 Zrotation Xrotation Yrotation
                      End Site
                      {
                        OFFSET -1.6102 -0.4807 0.2612
                      }
                    }
                  }
                }
                JOINT RightHandMiddle1
                {
                  OFFSET -8.9937 0.894989 0.2143
                  CHANNELS 3 Zrotation Xrotation Yrotation
                  JOINT RightHandMiddle2
                  {
                    OFFSET -4.0984 0.0113983 -0.0242
                    CHANNELS 3 Zrotation Xrotation Yrotation
                    JOINT RightHandMiddle3
                    {
                      OFFSET -2.2716 0.00691223 -0.0138001
                      CHANNELS 3 Zrotation Xrotation Yrotation
                      End Site
                      {
                        OFFSET -2.0404 -0.1441 0.0027
                      }
                    }
                  }
                }
                JOINT RightHandRing1
                {
                  OFFSET -8.5234 0.597198 -2.0164
                  CHANNELS 3 Zrotation Xrotation Yrotation
                  JOINT RightHandRing2
                  {
                    OFFSET -3.7188 -0.188309 -0.2328
                    CHANNELS 3 Zrotation Xrotation Yrotation
                    JOINT RightHandRing3
                    {
                      OFFSET -2.1191 -0.106598 -0.1332
                      CHANNELS 3 Zrotation Xrotation Yrotation
                      End Site
                      {
                        OFFSET -1.8737 -0.2304 -0.0886
                      }
                    }
                  }
                }
                JOINT RightHandPinky1
                {
                  OFFSET -7.9094 -0.601105 -3.4825
                  CHANNELS 3 Zrotation Xrotation Yrotation
                  JOINT RightHandPinky2
                  {
                    OFFSET -2.2874 -0.477005 -0.6314
                    CHANNELS 3 Zrotation Xrotation Yrotation
                    JOINT RightHandPinky3
                    {
                      OFFSET -1.6774 -0.349396 -0.4633
                      CHANNELS 3 Zrotation Xrotation Yrotation
                      End Site
                      {
                        OFFSET -1.4888 -0.4091 -0.3416
                      }
                    }
                  }
                }
                JOINT RightHandThumb1
                {
                  OFFSET -1.833 -1.38751 1.3896
                  CHANNELS 3 Zrotation Xrotation Yrotation
                  JOINT RightHandThumb2
                  {
                    OFFSET -3.41299 -1.12099 2.5732
                    CHANNELS 3 Zrotation Xrotation Yrotation
                    JOINT RightHandThumb3
                    {
                      OFFSET -2.24741 -0.804108 1.6192
                      CHANNELS 3 Zrotation Xrotation Yrotation
                      End Site
                      {
                        OFFSET -1.6527 -0.5689 1.1317
                      }
                    }
                  }
                }
              }
            }
          }
        }
      }
    }
  }
  JOINT RightUpLeg
  {
    OFFSET -9.1966 3.8861 -0.7581
    CHANNELS 3 Zrotation Xrotation Yrotation
    JOINT RightLeg
    {
      OFFSET -0.7359 -41.0265 0
      CHANNELS 3 Zrotation Xrotation Yrotation
      JOINT RightFoot
      {
        OFFSET 0 -40.2855 0
        CHANNELS 3 Zrotation Xrotation Yrotation
        JOINT RightToeBase
        {
          OFFSET 0 -5.6122 11.7359
          CHANNELS 3 Zrotation Xrotation Yrotation
          End Site
          {
            OFFSET 0 0 7.8731
          }
        }
      }
    }
  }
  JOINT LeftUpLeg
  {
    OFFSET 9.1965 3.8864 -0.7581
    CHANNELS 3 Zrotation Xrotation Yrotation
    JOINT LeftLeg
    {
      OFFSET 0.7359 -41.0268 0
      CHANNELS 3 Zrotation Xrotation Yrotation
      JOINT LeftFoot
      {
        OFFSET 0 -40.2855 0
        CHANNELS 3 Zrotation Xrotation Yrotation
        JOINT LeftToeBase
        {
          OFFSET 0 -5.6122 11.7359
          CHANNELS 3 Zrotation Xrotation Yrotation
          End Site
          {
            OFFSET 0 0 7.8731
          }
        }
      }
    }
  }
}
MOTION
Frames:	4
Frame Time:	0.0333333
0.000546845 0.201556 -49.3604 -180 -89.9981 -180 -0.0639237 8.82268 -0.107515 -0.112905 17.6455 -0.208715 -0.112905 17.6455 -0.208716 5.00102e-006 -13.6441 -3.1328e-008 -1.09026e-007 -36.0636 -1.76469e-007 1.17564 -0.341948 8.29517 -77.5056 0.471027 30.3668 33.0573 8.43563 -77.6623 -6.55689 23.2557 0.0094957 9.93923e-016 -4.32357e-015 -3.18055e-015 1.19271e-015 -4.47266e-015 1.59028e-015 -0 -4.67144e-015 -0 9.93923e-016 -4.32357e-015 -3.18055e-015 -0.0146178 -8.72566e-005 1.74254e-006 -7.95139e-016 -8.44835e-016 1.59028e-015 9.93923e-016 -4.32357e-015 -3.18055e-015 -0.0187601 -0.00117531 5.8182e-005 1.98785e-016 3.97569e-015 -0 9.93923e-016 -4.32357e-015 -3.18055e-015 -0.0123004 -0.00325914 0.000682796 1.59028e-015 -1.39149e-015 1.27222e-014 9.93923e-016 -4.32357e-015 -3.18055e-015 1.19271e-015 -4.47266e-015 1.59028e-015 -0 -4.67144e-015 -0 -1.11894 -0.356716 -8.30239 77.4619 0.484471 -30.365 -33.0606 8.42926 77.6483 6.56261 23.2539 -0.0189287 -1.59028e-015 -6.4605e-016 -1.43125e-014 -2.38542e-015 -1.59028e-015 -1.43125e-014 -1.98785e-015 5.96354e-016 -1.11319e-014 -1.59028e-015 -6.4605e-016 -1.43125e-014 0.0149799 -9.18793e-005 -1.05403e-005 -7.95139e-016 -1.78906e-015 -0 -1.59028e-015 -6.4605e-016 -1.43125e-014 0.0190156 -0.0011894 -5.27885e-005 1.73798e-031 -2.08724e-015 4.77083e-015 -1.59028e-015 -6.4605e-016 -1.43125e-014 0.0122811 -0.00325122 -0.000667871 -0 -6.85807e-015 -0 -1.59028e-015 -6.4605e-016 -1.43125e-014 -2.38542e-015 -1.59028e-015 -1.43125e-014 -1.98785e-015 5.96354e-016 -1.11319e-014 -16.2335 2.87622 -1.09301 1.92378 7.19905 -0.88697 -9.24962 13.2139 -0.603383 1.39506e-006 3.0307e-007 -9.19044e-007 16.1536 2.61921 1.10198 -1.89655 7.41419 0.885503 9.24429 13.1609 0.604804 -2.0637e-006 -6.95253e-007 -4.64353e-006 
0.00124308 0.202347 -49.3603 -180 -89.9981 -180 -0.0657607 9.22059 -0.106138 -0.116257 18.4413 -0.205469 -0.116257 18.4413 -0.205469 4.74001e-007 -14.444 3.8455e-007 1.51912e-007 -37.1956 1.88829e-007 2.02653 -1.5115 7.84106 -78.0689 0.229194 30.4767 33.0185 8.60593 -77.9392 -5.76237 22.737 -0.295285 -7.95139e-016 -7.60351e-015 -0 1.18624e-031 -4.27387e-015 1.59028e-015 -3.97569e-016 -4.37326e-015 -0 -7.95139e-016 -7.60351e-015 -0 -0.0146107 -8.84421e-005 1.81097e-007 1.39149e-015 -3.52843e-015 3.18055e-015 -7.95139e-016 -7.60351e-015 -0 -0.0187324 -0.00117064 6.11321e-005 0 4.32357e-015 -0 -7.95139e-016 -7.60351e-015 -0 -0.0122889 -0.00325391 0.00067622 -7.95139e-016 1.09332e-015 -0 -7.95139e-016 -7.60351e-015 -0 1.18624e-031 -4.27387e-015 1.59028e-015 -3.97569e-016 -4.37326e-015 -0 -1.87936 -1.5482 -7.85262 77.9857 0.25926 -30.4685 -33.023 8.59147 77.9104 5.78102 22.7331 0.27623 -2.32349e-006 -2.30925e-007 6.15855e-007 -2.30925e-007 2.32349e-006 -1.54114e-008 -2.32349e-006 -2.30925e-007 6.15855e-007 -2.32349e-006 -2.30925e-007 6.15855e-007 0.0150023 -9.15538e-005 -9.9709e-006 -2.32348e-006 -2.30845e-007 6.15887e-007 -2.32349e-006 -2.30925e-007 6.15855e-007 0.0189802 -0.00118969 -5.28912e-005 -2.32348e-006 -2.30825e-007 6.15917e-007 -2.32349e-006 -2.30925e-007 6.15855e-007 0.0122818 -0.00325206 -0.000678316 -2.32347e-006 -2.30874e-007 6.15946e-007 -2.32349e-006 -2.30925e-007 6.15855e-007 -2.30925e-007 2.32349e-006 -1.54114e-008 -2.32349e-006 -2.30925e-007 6.15855e-007 -16.236 2.7722 -1.10724 1.81995 7.74661 -0.886193 -9.24603 13.1097 -0.612334 -2.09638e-006 -4.56559e-007 1.37196e-006 16.0411 2.15198 1.13424 -1.74669 8.24053 0.884448 9.23813 12.9994 0.618739 -8.98299e-008 8.20314e-007 -5.385e-006 
0.00194095 0.203139 -49.3602 -180 -89.9981 -180 -0.0676168 9.62068 -0.104713 -0.119691 19.2415 -0.202092 -0.119692 19.2414 -0.202092 4.11627e-006 -15.2424 -6.07957e-007 -5.35745e-008 -38.3239 -1.41288e-008 2.86975 -2.68905 7.40353 -78.6319 -0.013733 30.5843 32.9806 8.77645 -78.2161 -4.97351 22.2144 -0.591242 1.98785e-016 6.41081e-015 -0 1.98785e-016 9.69075e-015 1.59028e-015 -1.98785e-016 9.69075e-015 1.59028e-015 1.98785e-016 6.41081e-015 -0 -0.0146267 -8.72846e-005 2.99841e-006 -1.98785e-016 4.07509e-015 6.36111e-015 1.98785e-016 6.41081e-015 -0 -0.0187733 -0.00117688 6.57074e-005 -1.78906e-015 7.95139e-016 -0 1.98785e-016 6.41081e-015 -0 -0.0122661 -0.00324566 0.00067024 5.96354e-016 -1.44119e-015 1.59028e-015 1.98785e-016 6.41081e-015 -0 1.98785e-016 9.69075e-015 1.59028e-015 -1.98785e-016 9.69075e-015 1.59028e-015 -2.63183 -2.74687 -7.41788 78.5091 0.0330923 -30.5698 -32.9862 8.75387 78.1725 5.00498 22.2085 0.562712 -2.32339e-006 -2.32359e-007 6.15692e-007 -8.13157e-007 -3.60127e-006 3.30053e-007 -2.32339e-006 -2.32359e-007 6.15692e-007 -2.32339e-006 -2.32359e-007 6.15692e-007 0.0149902 -9.11191e-005 -1.69393e-006 -2.32339e-006 -2.32279e-007 6.15724e-007 -2.32339e-006 -2.32359e-007 6.15692e-007 0.0189995 -0.001191 -5.73868e-005 -2.32338e-006 -2.32258e-007 6.15755e-007 -2.32339e-006 -2.32359e-007 6.15692e-007 0.0122408 -0.00324254 -0.000678155 -2.32337e-006 -2.32308e-007 6.15782e-007 -2.32339e-006 -2.32359e-007 6.15692e-007 -8.13157e-007 -3.60127e-006 3.30053e-007 -2.32339e-006 -2.32359e-007 6.15692e-007 -16.2383 2.68187 -1.12122 1.71578 8.26646 -0.883158 -9.24292 13.0195 -0.620082 -2.10014e-006 -4.58509e-007 1.36534e-006 15.9284 1.70561 1.16544 -1.59612 9.02471 0.879414 9.23273 12.859 0.630844 -1.83053e-006 -3.63191e-007 -2.7952e-006 
0.00263739 0.20393 -49.3601 -180 -89.9981 -180 -0.0694903 10.0223 -0.103239 -0.123207 20.0447 -0.198585 -0.123207 20.0447 -0.198585 8.84955e-007 -16.0396 -6.63187e-007 1.482e-007 -39.4482 1.68222e-007 3.70562 -3.87385 6.98257 -79.1945 -0.257766 30.6894 32.9434 8.94715 -78.493 -4.19025 21.6879 -0.878455 -3.97569e-016 1.22253e-014 -3.18055e-015 -3.97569e-016 9.39258e-015 -0 -3.97569e-016 9.79014e-015 1.59028e-015 -3.97569e-016 1.22253e-014 -3.18055e-015 -0.014599 -8.65211e-005 -3.87763e-007 -7.95139e-016 -1.2424e-015 -3.18055e-015 -3.97569e-016 1.22253e-014 -3.18055e-015 -0.0187686 -0.00117625 5.35939e-005 -7.95139e-016 2.08724e-015 -0 -3.97569e-016 1.22253e-014 -3.18055e-015 -0.0122619 -0.00324719 0.000674222 -3.97569e-016 -3.03147e-015 -3.18055e-015 -3.97569e-016 1.22253e-014 -3.18055e-015 -3.97569e-016 9.39258e-015 -0 -3.97569e-016 9.79014e-015 1.59028e-015 -3.37667 -3.95206 -6.9981 79.0322 -0.194023 -30.6692 -32.9501 8.91642 78.4345 4.23442 21.6802 0.840507 -2.32334e-006 -2.33335e-007 6.15507e-007 -2.09001e-006 -2.55668e-006 6.30032e-007 -2.32334e-006 -2.33335e-007 6.15507e-007 -2.32334e-006 -2.33335e-007 6.15507e-007 0.0149967 -8.86357e-005 8.44821e-006 -2.32334e-006 -2.33254e-007 6.15539e-007 -2.32334e-006 -2.33335e-007 6.15507e-007 0.0189889 -0.00119208 -6.33925e-005 -2.32334e-006 -2.33234e-007 6.1557e-007 -2.32334e-006 -2.33335e-007 6.15507e-007 0.0122704 -0.0032504 -0.000679755 -2.32332e-006 -2.33283e-007 6.15598e-007 -2.32334e-006 -2.33335e-007 6.15507e-007 -2.09001e-006 -2.55668e-006 6.30032e-007 -2.32334e-006 -2.33335e-007 6.15507e-007 -16.2404 2.59928 -1.13501 1.61131 8.77067 -0.878506 -9.24009 12.9372 -0.627145 3.24756e-006 3.4094e-006 3.58016e-006 15.8156 1.27142 1.19566 -1.44487 9.78415 0.871367 9.2278 12.7311 0.641841 -3.92422e-006 9.14299e-008 -1.42922e-006 
